<?xml version="1.0" encoding="UTF-8"?>
<svg xmlns="http://www.w3.org/2000/svg" version="1.1" viewBox="0 0 150 150">
  <defs>
    <style>
      .cls-1 {
        fill: #cfe0de;
      }

      .cls-2 {
        fill: #6892a2;
      }

      .cls-3 {
        fill: #b4d1cd;
      }

      .cls-4 {
        fill: #cc2027;
      }

      .cls-5 {
        fill: none;
        stroke: #6892a2;
        stroke-miterlimit: 10;
        stroke-width: .3px;
      }
    </style>
  </defs>
  <!-- Generator: Adobe Illustrator 28.6.0, SVG Export Plug-In . SVG Version: 1.2.0 Build 709)  -->
  <g>
    <g id="Layer_2">
      <g>
        <path class="cls-1" d="M90.5,78.2c.2-1.2-1.1-1.9-1.7-2.3s-.7-1-1.2-1.1-.1-.5-.8-.6-.5-.6-.8-.7-.7-.6-1-.9-1.2-2.3-1.2-3.5,1-1.9,1.4-2.4,1.8-1.4,3.4-1.6,2.4.6,3.4,1.4.4,1.5.9,2c.5.5,0,.8.5,1.4s0,0,.2.6-.1,1,.7,1.3c.8.3,1.9.2,1.9.2l-5.6,6.1Z"/>
        <path class="cls-3" d="M85.2,66.8c.5-.5,1.8-1.4,3.4-1.6.8-.1,2.5,1.8,2.6,2.6,0,1.5,0,3.5.8,4.5.9,1,1.1,1,1.1,1l.8,1.2-2.9,3.2-.4.2c0-1.1-1.2-1.7-1.8-2.1-.6-.4-.7-1-1.2-1.1-.5,0-.1-.5-.8-.6-.7,0-.5-.6-.8-.7-.4,0-.7-.6-1-.9-.3-.3-1.2-2.3-1.2-3.5,0-1.2,1-1.9,1.4-2.4Z"/>
        <path class="cls-5" d="M90.5,78.2c.2-1.2-1.1-1.9-1.7-2.3s-.7-1-1.2-1.1-.1-.5-.8-.6-.5-.6-.8-.7-.7-.6-1-.9-1.2-2.3-1.2-3.5,1-1.9,1.4-2.4,1.8-1.4,3.4-1.6,2.4.6,3.4,1.4.4,1.5.9,2c.5.5,0,.8.5,1.4s0,0,.2.6-.1,1,.7,1.3c.8.3,1.9.2,1.9.2l-5.6,6.1Z"/>
        <path class="cls-1" d="M86.4,90c0,1.7.9,4.9,1.2,5.8.3.9,2.1,2.7,3.6,3.1,1.4.3,1.7-.9,2-1.6.3-.6.7-1.3.8-1.7,0-.4.7-1.4.9-1.8.2-.4,0-1.3-.1-1.6l.7,2.5s.5.9.5,1.6c0,.7.2,1.9.2,2.8,0,.9,1.2,1.7,1.2,2.6s.6,1.3,1.1,2.4c.5,1.2.6,2.7.8,3.2s.3,1.4.3,1.8c0,.4.1,1.4,0,2.2-.1.7-.1.8-.2,2,0,1.2.4,4,.4,4.9s.6,2.4,1,3.7c.4,1.2.2,2.8.5,3.7.3.9.5,3.3.6,3.7,0,.4,0,1-.2,1.6-.2.6,0,.5.3.5.4,0,1.2,0,1.7,0,.5,0,1.1,0,1.6,0s1.5-.2,2-.2,1.5,0,1.5,0c0,0-.2-1.2-.5-1.4s-.4-.3-.7-.4c-.3-.1-.2-.1-.2-.3,0-.2,0-.5,0-.7s-.3-.2-.3-.2c0,0,.1-.2.1-.5,0-.3-.3-1.7-.4-2.1,0,0,0-.2,0-.4.4-.6,1.2-.9,1.7-1.3.6-.5,1.2-1.4,1.3-1.7s.4-.8.7-.9c.4-.2.7-.6,1.1-.9.4-.3,1.9-2.8,2.4-3.2.4-.4.8-1.3,1.3-1.4.5,0,.4-.9.8-1.3.3-.4,0-1.5-.5-2.1-.6-.6-.1-.2-.2-1.5,0-1.2,0-2.9.1-4.6.2-1.7.2-3.5.2-4.6s-1.4-6.1-1.5-6.9c-.1-.8-.2-1.4-.3-2.3,0-.9-.6-1.7-.9-2.9-.3-1.1-.9-2.2-.9-2.2,0,0-.5-1-.7-1.4-.2-.4-.5-1.1-.9-2.2-.4-1.2-1.4-3-1.7-3.5-.4-.5-.3-1.6-.6-2.3-.2-.7-.8-2-1-2.4s-.2-.9-.1-1.8-2.6-3.5-4.4-4c-1.9-.5-3.7-.4-4.7.6s-1.2,1.2-1.9,1.5c-.7.2-1.6.6-2.3.8-.7.2-1.7,2-2.3,2.6s-1.3,1.6-2,2.5c-.6.8-.9,2.3-1.5,3.2-.6.9-.7,2.3-.9,3.2-.2.9-.7,4.2-.7,5.9ZM106.3,115.9s0,0,0-.1c0-.6-.3-1.8-.4-2.1,0-.4-.1-.9-.2-1.3s0-1.5,0-1.9,0-.6.3-1.1c.2-.5,0-1.4-.2-1.9s0-1,.1-1.4.2-1.3.2-1.3h0c0,.2.1.5.2.8.2.7,0,.6.5,1.2s.2.9.5,1.4c.4.5.1,1,.2,1.6.1.6.2.5.2,1s.4.9.8,1.2c.4.3.8.8.8.8,0,0-.9,1.2-1.5,2-.6.8-.4,1.8-.4,1.8,0,0-.7-.4-1-.8Z"/>
        <path class="cls-3" d="M99.6,109.2c0,.4.1,1.4,0,2.2-.1.7-.1.8-.2,2,0,1.2.4,4,.4,4.9s.6,2.4,1,3.7c.4,1.2.2,2.8.5,3.7.1.4.3,1.1.4,1.8l4.7-4.2s2.8-10.3,3.5-11.3c.8-1-1.1-.7-.4-1.1.6-.4,1.6.4,2.5-.4s-.1-1.6.6-2.6c.7-1-1.1-.4-.9-.9.2-.6.4-1.3.9-2.1.6-.7,0-.8-1.2-.8s-.9-.1-.4-1.3,1.2-1.1,2.7-1.6c1.5-.6-2.1-.6-.5-1.9,1.6-1.3-1.4,0,0-1.4,1.4-1.3-2.2-.4-1.2-1.6,1-1.3-1-.1-.2-1.8.8-1.6-1.2-.3-2.1-1s-2.6.7-3.8.9c-1.2.1-2.3-.3-4,0-1.8.3-1.7,0-3.1,0-1.4,0-1.1-.9.9-1.4,1.9-.6.5-1.2-.9-1.3-1.3,0,1-1.4,1-1.4,0,0,.9-2,.7-2-.2,0-1.4-.6-1.8-.8-.3-.2-1.5.8-2.2.8s0-1.3,1.1-1.9c1-.6-.6-1.3.8-2.6,1.3-1.3-.9,0-.2-1.2.7-1.2-.9,0-1.2-.2-.4-.2-1.9.8-1.4-.3.5-1.1-.8-.3-2,.2-1.2.5.2-1.1.7-1.6.5-.5-1.9-.7-3.1-.7s-1.8.2-2.6.3c-.1.3-.3.7-.5.9-.6.9-.7,2.3-.9,3.2-.2.9-.7,4.2-.7,5.9,0,1.7.9,4.9,1.2,5.8.3.9,2.1,2.7,3.6,3.1,1.4.3,1.7-.9,2-1.6.3-.6.7-1.3.8-1.7,0-.4.7-1.4.9-1.8.2-.4,0-1.3-.1-1.6l.7,2.5s.5.9.5,1.6c0,.7.2,1.9.2,2.8,0,.9,1.2,1.7,1.2,2.6s.6,1.3,1.1,2.4c.5,1.2.6,2.7.8,3.2s.3,1.4.3,1.8ZM105.6,110.5c0-.4,0-.6.3-1.1.2-.5,0-1.4-.2-1.9s0-1,.1-1.4.2-1.3.2-1.3h0c0,.2.1.5.2.8.2.7,0,.6.5,1.2s.2.9.5,1.4c.4.5.1,1,.2,1.6.1.6.2.5.2,1s.4.9.8,1.2c.4.3.8.8.8.8,0,0-.9,1.2-1.5,2-.6.8-.4,1.8-.4,1.8,0,0-.7-.4-1-.8,0,0,0,0,0-.1,0-.6-.3-1.8-.4-2.1,0-.4-.1-.9-.2-1.3s0-1.5,0-1.9Z"/>
        <path class="cls-1" d="M114.2,117.2c-.4.4-1.9,2.9-2.4,3.2s-.8.7-1.1.9-.6.6-.7.9-.7,1.2-1.3,1.7-1.8.9-2,1.9-1.3,3-1.9,3.5-.8.8-1.5.8-1.3-.6-1.3-1.8c0-1.1-.1-3.9.3-4.6s.9-1.6.9-2.4-.5-2-.3-2.6,0-2.2.6-2.6,1.1-.6,1.7-.6,1,0,1.3.4,1,.8,1,.8c0,0-.2-1,.4-1.8s1.5-2,1.5-2l5,4.3Z"/>
        <path class="cls-3" d="M103,121.3c0-.8-.5-2-.3-2.6.1-.6,0-2.2.6-2.6.5-.3.9-.5,1.3-.6.3.9.7,2.4.7,3.4,0,1.5-.7,6.1-.9,7.4-.1.7,0,2,0,3.1-.5.4-.6.6-1.3.6-.7,0-1.3-.6-1.3-1.8,0-1.1-.1-3.9.3-4.6s.9-1.6.9-2.4Z"/>
        <path class="cls-5" d="M106.3,115.9c.3.4,1,.8,1,.8,0,0-.2-1,.4-1.8s1.5-2,1.5-2c0,0-.4-.4-.8-.8s-.8-.7-.8-1.2,0-.4-.2-1,.1-1.1-.2-1.6,0-.9-.5-1.4-.3-.4-.5-1.2-.3-1.2-.3-2.1,0-1.4,0-1.8-.1-1.2-.1-1.2"/>
        <path class="cls-5" d="M106.9,125.2c0,.2,0,.3,0,.4,0,.4.4,1.8.4,2.1s-.1.5-.1.5c0,0,.2,0,.3.2s0,.5,0,.7,0,.2.2.3.4.2.7.4.5,1.4.5,1.4c0,0-1,0-1.5,0s-1.6.3-2,.2-1.1,0-1.6,0-1.4,0-1.7,0-.5.1-.3-.5.2-1.1.2-1.6-.3-2.9-.6-3.7-.1-2.4-.5-3.7c-.4-1.2-1-2.7-1-3.7,0-.9-.4-3.8-.4-4.9,0-1.2,0-1.2.2-2s0-1.8,0-2.2-.1-1.3-.3-1.8-.2-2-.8-3.2c-.5-1.2-1.1-1.6-1.1-2.4s-1.2-1.7-1.2-2.6-.1-2.1-.2-2.8-.5-1.6-.5-1.6l-.7-2.6s.3,1.2.2,1.6-.8,1.4-.9,1.8-.5,1-.8,1.7-.6,1.9-2,1.6-3.3-2.2-3.6-3.1-1.2-4.1-1.2-5.8c0-1.7.5-5,.7-5.9s.4-2.3.9-3.2.9-2.4,1.5-3.2c.6-.8,1.3-1.8,2-2.5s1.6-2.5,2.3-2.6,1.6-.6,2.3-.8.9-.5,1.9-1.5c1-1,2.8-1.1,4.7-.6s4.5,3.1,4.4,4,0,1.4.1,1.8.7,1.7,1,2.4.2,1.8.6,2.3,1.4,2.3,1.7,3.5c.4,1.2.6,1.9.9,2.2s.7,1.4.7,1.4c0,0,.7,1,.9,2.2s.8,2,.9,2.9.1,1.5.3,2.3,1.5,5.8,1.5,6.9c0,1.1,0,2.9-.2,4.6s-.2,3.4-.1,4.6c0,1.2-.3.9.2,1.5s.9,1.7.5,2.1-.3,1.2-.8,1.3-.8,1-1.3,1.4-1.9,2.9-2.4,3.2-.8.7-1.1.9-.6.6-.7.9-.7,1.2-1.3,1.7-1.8.9-2,1.9-1.3,3-1.9,3.5-.8.8-1.5.8-1.3-.6-1.3-1.8c0-1.1-.1-3.9.3-4.6s.9-1.6.9-2.4-.5-2-.3-2.6,0-2.2.6-2.6,1.1-.6,1.7-.6,1,0,1.3.4"/>
        <path class="cls-2" d="M112.5,88.1c-2.2-1-4.9-.5-7.3-.4-3.2,0-6.7.7-9,3.1,0,0-1.4,2-1.4,2l1.3-2.1c2.2-2.5,5.8-3.4,9.1-3.3,2.4,0,5.1-.5,7.3.6h0Z"/>
        <path class="cls-2" d="M113.1,89.5c-2.2-1-4.9-.5-7.3-.4-3.2,0-6.7.7-9,3.1,0,0-1.4,2-1.4,2l1.3-2.1c2.2-2.5,5.8-3.4,9.1-3.3,2.4,0,5.1-.5,7.3.6h0Z"/>
        <path class="cls-2" d="M93.7,92.6c-1.1,1.1-1.1-.2-.8-1.1.6-2,.5-4.5,1.2-6.8-.2,1.5-.4,3-.6,4.6,0,.7-.2,1.6-.5,2.3-.3.7-.6,1.9.6,1h0Z"/>
        <path class="cls-2" d="M107.8,99.2c-.8.4-1.1,1.4-2,1.6-.9.1-1.7-.3-2.5-.6.8.2,1.7.5,2.5.4.8-.1,1.3-1.1,2.1-1.3h0Z"/>
      </g>
      <circle class="cls-4" cx="103.3" cy="70.9" r="1.7"/>
      <circle class="cls-4" cx="103.3" cy="70.9" r="1.7"/>
    </g>
  </g>
</svg>