<?xml version="1.0" encoding="UTF-8"?>
<svg xmlns="http://www.w3.org/2000/svg" version="1.1" viewBox="0 0 150 150">
  <defs>
    <style>
      .cls-1 {
        fill: #cfe0de;
      }

      .cls-2 {
        fill: #6892a2;
      }

      .cls-3 {
        fill: #b4d1cd;
      }

      .cls-4 {
        fill: #cc2027;
      }

      .cls-5 {
        fill: none;
        stroke: #6892a2;
        stroke-linecap: round;
        stroke-miterlimit: 10;
        stroke-width: .3px;
      }
    </style>
  </defs>
  <!-- Generator: Adobe Illustrator 28.6.0, SVG Export Plug-In . SVG Version: 1.2.0 Build 709)  -->
  <g>
    <g id="Layer_2">
      <g>
        <path class="cls-1" d="M94.7,78.1c.7,0,1.5-.6,1.8-1.3s.5-1.2.5-1.2c0,0-.3-1.2,0-2.2.3-1,.7-2.2,1.2-2.9s2.3-1.8,4.7-.7c2.3,1.1,3.5,2.8,3.3,3.7-.2.9-.5,1.6-.8,2s-.4,1.5-.7,2.1-.4.9-1.1,1.2-1.2.7-1.5,1-.5,1-.6,1.4-1.3,1.6-1.3,1.6l-5.4-4.8Z"/>
        <path class="cls-3" d="M104.6,77.6c.4-.6.5-1.6.7-2.1s.5-1.1.8-2c.2-.8-.7-2.3-2.7-3.4-1,.2-2,.5-2.6,1-1.2.9-1.9,1.4-1.9,2.6s0,1.8-.3,2.4c-.4.5-1,1.8-3.5,2.4l4.9,4.4s1.2-1.2,1.3-1.6c0-.4.3-1.1.6-1.4.3-.3.8-.6,1.5-1,.7-.4.7-.7,1.1-1.2Z"/>
        <path class="cls-5" d="M94.7,78.1c.7,0,1.5-.6,1.8-1.3s.5-1.2.5-1.2c0,0-.3-1.2,0-2.2.3-1,.7-2.2,1.2-2.9s2.3-1.8,4.7-.7c2.3,1.1,3.5,2.8,3.3,3.7-.2.9-.5,1.6-.8,2s-.4,1.5-.7,2.1-.4.9-1.1,1.2-1.2.7-1.5,1-.5,1-.6,1.4-1.3,1.6-1.3,1.6l-5.4-4.8Z"/>
        <path class="cls-1" d="M101.5,82.1c-1.1-1-1-1.2-2.2-1.9-1.2-.6-2.1-1.3-2.7-1.6s-1-.7-1-.7c0,0-1-.6-2.6-.7s-3.6-.4-4.4-.4-2.5.2-3.5.6c-1,.3-2,1-2.8,1.4-.8.4-2.5,1.4-3.5,1.9s-1.2.9-1.7,1.5c-.5.6-.9,1.1-1.7,1.7s-2,1-2.2,1.6c-.2.5-.2,1.2-.5,1.3-.2,0-.6,1.6-.4,2.7.2,1.1-.2,2.7,0,3.3.1.6.4.9.4.9,0,0-1.2.4-1.1,1.3,0,.9-.2,1.7.6,2.6.8.9.6,2.3,1.7,2.4s1.9.4,1.9.4c0,0-.4,1,.3,2.2.7,1.1,1.4,2.6,2.3,3.4.9.7,1.7,1.5,2.5,1.7.7.2,1.2.6,1.2.6,0,0-.4,1.2-.4,2.2s-.2,4.3-.2,5.2-.4,1.7-.4,2.3c0,.6,0,.9,0,.9,0,0,0,.5-.5.6-.5.1-1.1.3-1.2,1-.1.6,0,2.3-.4,3.2s-.4,1.3-.7,1.6-.9.4-1.3,1-.8,2.7-.4,3.3,1.1,1.6,2.2,1.5c1.1-.1,2-1.7,2.6-2.5.6-.8,1.3-2,1.3-2,0,0,.5,0,1.6-.4,1.1-.4,1.6-1,2.1-1.5.5-.5.8-1.3.8-2s.4-1.3.4-1.3c0,0,.4.5.4.9s.3,1,.3,1.6-.3,2-.2,2.5c0,.6-.2,1.6-.2,2.2,0,.5.5.6.5.6,0,0,2.4.1,3.3.2.9.1,2.7.4,3.6.2.9-.2,1.6-1.3.9-1.9-.7-.5-1.2-1.3-1.7-1.5-.5-.1-1.1-.5-1.2-.7-.1-.2-.6-1.4-.6-1.4,0,0-.2-.5-.7-1-.5-.5-1.2-1.8-1.3-2.8-.1-1-.8-2.2-.8-3.3s-.1-2.3-.1-2.3c0,0,1.1-2.1,1.2-3.3.1-1.3,0-1.4.2-1.6s.8-1,.9-1.6c.1-.6.4-1,.4-1.8,0-.8.5-2,.5-2.3s.7-1.4.7-2.2,0-1.3.2-1.8c.2-.5.4-1.6.4-1.6,0,0,.4-1.4,1.1-2s.7-1.2,1.7-1.5,1.7-.9,2.3-1.1c.6-.2,1.4-1.2,1.4-1.2,0,0,1.5-1.9,1.9-4,.4-2.1.6-4,.6-4,0,0-.9-1.3-2-2.2ZM83.9,86.5c-.2.4-.4,2.1-.9,2.6-.5.6-1.6,1.8-2.1,2.3-.5.6-.7,1.6-1.2,2.2-.5.5-1.4,1.3-1.4,1.3,0,0,0-1.3-.5-1.5s-1.4-.8-1.8-.9c-.4-.1-.4-.3-.4-.3,0,0,.5-1.5.5-2.1s0-1.2,0-1.2c0,0,1.9-.6,3.1-1.2,1.1-.6,2.9-2,3.5-2.6.6-.6,1.2-.9,1.2-.9,0,0,.2,1.8,0,2.2Z"/>
        <path class="cls-3" d="M103.6,84.4s-.9-1.3-2-2.2c-1.1-1-1-1.2-2.2-1.9-1.2-.6-1-.6-1.6-.9,0,0-4.7-.2-5.4-.1-2.4.2,3.4.8,0,1.1-3.4.4,1.9,1-.6,1s1.6,1.5-.6,2.9c-2.2,1.4,2.1,6.6-1.3,7.2-3.3.5-1.5,2.9-3.4,2.9-1.9,0-1.5-.7-4,.5-2.5,1.2.4,5.6-1.2,5.5-1.6,0-1.6,0-3.5,0-.9,0-1.4.7-1.9,1.5,0,.2.2.4.3.7.7,1.1,1.4,2.6,2.3,3.4.9.7,1.7,1.5,2.5,1.7.7.2,1.2.6,1.2.6,0,0-.4,1.2-.4,2.2s-.2,4.3-.2,5.2-.4,1.7-.4,2.3c0,.6,0,.9,0,.9,0,0,0,.5-.5.6-.5.1-1.1.3-1.2,1-.1.6,0,2.3-.4,3.2s-.4,1.3-.7,1.6-.9.4-1.3,1-.8,2.7-.4,3.3,1.1,1.6,2.2,1.5c1.1-.1,2-1.7,2.6-2.5.6-.8,1.3-2,1.3-2,0,0,.5,0,1.6-.4,1.1-.4,1.6-1,2.1-1.5.5-.5.8-1.3.8-2s.4-1.3.4-1.3c0,0,.4.5.4.9s.3,1,.3,1.6-.3,2-.2,2.5c0,.6-.2,1.6-.2,2.2,0,.5.5.6.5.6,0,0,2.4.1,3.3.2.9.1,2.7.4,3.6.2.9-.2,1.6-1.3.9-1.9-.7-.5-1.2-1.3-1.7-1.5-.5-.1-1.1-.5-1.2-.7-.1-.2-.6-1.4-.6-1.4,0,0-.2-.5-.7-1-.5-.5-1.2-1.8-1.3-2.8-.1-1-.8-2.2-.8-3.3s-.1-2.3-.1-2.3c0,0,1.1-2.1,1.2-3.3.1-1.3,0-1.4.2-1.6s.8-1,.9-1.6c.1-.6.4-1,.4-1.8,0-.8.5-2,.5-2.3s.7-1.4.7-2.2,0-1.3.2-1.8c.2-.5.4-1.6.4-1.6,0,0,.4-1.4,1.1-2s.7-1.2,1.7-1.5,1.7-.9,2.3-1.1c.6-.2,1.4-1.2,1.4-1.2,0,0,1.5-1.9,1.9-4,.4-2.1.6-4,.6-4Z"/>
        <path class="cls-5" d="M95.7,77.9s-1-.6-2.6-.7c-1.6-.1-3.6-.4-4.4-.4s-2.5.2-3.5.6c-1,.3-2,1-2.8,1.4s-2.5,1.4-3.5,1.9c-.9.5-1.2.9-1.7,1.5s-.9,1.1-1.7,1.7-2,1-2.2,1.6-.2,1.2-.5,1.3-.6,1.6-.4,2.7-.2,2.7,0,3.3.4.9.4.9c0,0-1.2.4-1.1,1.3s-.2,1.7.6,2.6.6,2.3,1.7,2.4c1.2.1,1.9.4,1.9.4,0,0-.4,1,.3,2.2s1.4,2.6,2.3,3.4,1.7,1.5,2.5,1.7,1.2.6,1.2.6c0,0-.4,1.2-.4,2.2s-.2,4.3-.2,5.2-.4,1.7-.4,2.3,0,.9,0,.9c0,0,0,.5-.5.6s-1.1.3-1.2,1,0,2.3-.4,3.2-.4,1.3-.7,1.6-.9.4-1.3,1-.8,2.7-.4,3.3,1.1,1.6,2.2,1.5c1.1-.1,2-1.7,2.6-2.5s1.3-2,1.3-2c0,0,.5,0,1.6-.4s1.6-1,2.1-1.5.8-1.3.8-2,.4-1.3.4-1.3c0,0,.4.5.4.9s.3,1,.3,1.6-.3,2-.2,2.5-.2,1.6-.2,2.2.5.6.5.6c0,0,2.4.1,3.3.2s2.7.4,3.6.2,1.6-1.3.9-1.9-1.2-1.3-1.7-1.5-1.1-.5-1.2-.7-.6-1.4-.6-1.4c0,0-.2-.5-.7-1s-1.2-1.8-1.3-2.8-.8-2.2-.8-3.3-.1-2.3-.1-2.3c0,0,1.1-2.1,1.2-3.3.1-1.3,0-1.4.2-1.6s.8-1,.9-1.6.4-1,.4-1.8.5-2,.5-2.3.7-1.4.7-2.2,0-1.3.2-1.8.4-1.6.4-1.6c0,0,.4-1.4,1.1-2s.7-1.2,1.7-1.5c1-.3,1.7-.9,2.3-1.1s1.4-1.2,1.4-1.2c0,0,1.5-1.9,1.9-4s.6-4,.6-4c0,0-.9-1.3-2-2.2-1.1-1-1-1.2-2.2-1.9s-2.1-1.3-2.7-1.6-1-.7-1-.7Z"/>
        <path class="cls-5" d="M90,114.5s-.5,2.4-1,3.6-.4,1.5-.6,1.8-.6,1.1-.6,1.1"/>
        <path class="cls-2" d="M82.1,108.1c.4-1.3.6-2.8,1.4-4-.7,1.2-.8,2.7-1.1,4,0,.2-.3.1-.2,0h0Z"/>
        <path class="cls-2" d="M80.9,91.4c2.3,1,4.5,2.5,6.9,3.2,2.5.8,4.7,2.1,6.8,3.6-2.2-1.3-4.4-2.6-6.8-3.3-2.4-.8-4.6-2.2-6.9-3.4h0Z"/>
        <path class="cls-2" d="M94,100.2c-4.2-3.2-9.9-3.6-14-7,4.3,3.1,10,3.5,14,7h0Z"/>
        <path class="cls-5" d="M76,100.3s.1-.7.3-2.1,1.3-2.5,1.5-2.7.5-.7.5-.7"/>
        <path class="cls-2" d="M83.8,84.2c.4-.5.7-1.1,1.3-1.3-.6.3-.8.9-1.1,1.4,0,.2-.3,0-.2-.1h0Z"/>
        <path class="cls-2" d="M82.8,126.3c.9-1.9,1.7-4.3.6-6.3,1.2,1.9.4,4.4-.4,6.4,0,.2-.3,0-.2-.1h0Z"/>
        <path class="cls-5" d="M83.9,86.5c-.2.4-.4,2.1-.9,2.6-.5.6-1.6,1.8-2.1,2.3-.5.6-.7,1.6-1.2,2.2-.5.5-1.4,1.3-1.4,1.3,0,0,0-1.3-.5-1.5s-1.4-.8-1.8-.9c-.4-.1-.4-.3-.4-.3,0,0,.5-1.5.5-2.1s0-1.2,0-1.2c0,0,1.9-.6,3.1-1.2,1.1-.6,2.9-2,3.5-2.6.6-.6,1.2-.9,1.2-.9,0,0,.2,1.8,0,2.2Z"/>
        <path class="cls-2" d="M72.8,93.6c1-.3,2.1-.5,2.8-1.4-.4,1.1-1.8,1.4-2.8,1.4h0Z"/>
      </g>
      <circle class="cls-4" cx="102.1" cy="86.6" r="1.7"/>
      <circle class="cls-4" cx="102.1" cy="86.6" r="1.7"/>
    </g>
  </g>
</svg>