<?xml version="1.0" encoding="UTF-8"?>
<svg xmlns="http://www.w3.org/2000/svg" version="1.1" viewBox="0 0 150 150">
  <defs>
    <style>
      .cls-1 {
        fill: #cfe0de;
      }

      .cls-2 {
        fill: #6892a2;
      }

      .cls-3 {
        fill: #b4d1cd;
      }

      .cls-4 {
        fill: #cc2027;
      }

      .cls-5 {
        stroke-linecap: round;
        stroke-width: .3px;
      }

      .cls-5, .cls-6 {
        fill: none;
        stroke: #6892a2;
        stroke-miterlimit: 10;
      }

      .cls-6 {
        stroke-width: .3px;
      }
    </style>
  </defs>
  <!-- Generator: Adobe Illustrator 28.6.0, SVG Export Plug-In . SVG Version: 1.2.0 Build 709)  -->
  <g>
    <g id="Layer_2">
      <circle class="cls-4" cx="101.8" cy="87.9" r="1.7"/>
      <circle class="cls-4" cx="101.8" cy="87.9" r="1.7"/>
      <g>
        <path class="cls-1" d="M100.3,85.6s.1,1.9.6,4c.4,2.1,1.9,4,1.9,4,0,0,.8.9,1.4,1.2.6.2,1.3.8,2.3,1.1s1,.9,1.7,1.5,1.1,2,1.1,2c0,0,.2,1.1.4,1.6.2.5.2,1.1.2,1.8s.7,1.8.7,2.2c0,.3.6,1.6.5,2.3,0,.8.3,1.2.4,1.8.1.6.7,1.3.9,1.6s.1.4.2,1.6c.1,1.3,1.2,3.3,1.2,3.3,0,0-.1,1.2-.1,2.3s-.7,2.3-.8,3.3c-.1,1-.9,2.3-1.3,2.8-.5.5-.7,1-.7,1,0,0-.5,1.2-.6,1.4-.1.2-.7.6-1.2.7-.5.1-1,1-1.7,1.5-.7.5,0,1.7.9,1.9.9.2,2.7-.1,3.6-.2.9-.1,3.3-.2,3.3-.2,0,0,.5,0,.5-.6,0-.5-.2-1.6-.2-2.2,0-.6.4-1.8.4-2.3s.3-1.1.3-1.6.2-.4.2.2.3,1.5.8,2c.5.5,1,1.1,2.1,1.5,1.1.4,1.6.4,1.6.4,0,0,.8,1.2,1.3,2s1.4,2.4,2.6,2.5c1.1.1,1.8-.9,2.2-1.5s0-2.7-.4-3.3-1-.7-1.3-1-.3-.7-.7-1.6-.2-2.5-.4-3.2c-.1-.6-.7-.9-1.2-1-.5-.1-.5-.6-.5-.6,0,0,0-.4,0-.9,0-.6-.4-1.4-.4-2.3s-.2-4.2-.2-5.2-.4-2.2-.4-2.2c0,0,.5-.4,1.2-.6.7-.2,1.6-.9,2.5-1.7.9-.7,1.6-2.2,2.3-3.4.7-1.1.3-2.2.3-2.2,0,0,.7-.3,1.9-.4s.9-1.6,1.7-2.4c.8-.9.5-1.7.6-2.6,0-.9-1.1-1.3-1.1-1.3,0,0,.3-.3.4-.9.1-.6-.2-2.2,0-3.3s-.1-2.6-.4-2.7c-.2,0-.3-.8-.5-1.3-.2-.5-1.3-.9-2.2-1.6s-1.2-1.2-1.7-1.7c-.5-.6-.8-.9-1.7-1.5s-2.6-1.5-3.5-1.9c-.8-.4-1.8-1.1-2.8-1.4-1-.3-2.7-.6-3.5-.6s-2.8.2-4.4.4c-1.6.1-2.6.7-2.6.7,0,0-.5.4-1,.7s-1.5,1-2.7,1.6c-1.2.6-1.1.9-2.2,1.9-1.1,1-2,2.2-2,2.2ZM120,85.5s.6.2,1.2.9c.6.6,2.4,2,3.5,2.6,1.1.6,3.1,1.2,3.1,1.2,0,0,0,.6,0,1.2s.5,2.1.5,2.1c0,0,0,.2-.4.3-.4.1-1.3.7-1.8.9s-.5,1.5-.5,1.5c0,0-.9-.7-1.4-1.3-.5-.5-.7-1.6-1.2-2.2-.5-.6-1.6-1.8-2.1-2.3-.5-.6-.6-2.3-.9-2.6-.2-.4,0-2.2,0-2.2Z"/>
        <path class="cls-3" d="M128.3,93.4s0,.2-.4.3c-.4.1-1.3.7-1.8.9s-.5,1.5-.5,1.5c0,0-1.7,2.5-1.5,3.9s-.3,3.3,1.5,2.8c1.8-.5,2.3-1.2,2.3-1.2,0,0,.7-.3,1.9-.4,1.2-.1.9-1.6,1.8-2.4.8-.9.5-1.8.6-2.6,0-.9-1.1-1.3-1.1-1.3h0c-1.3,0-2.2-.5-2.8-1.4Z"/>
        <path class="cls-1" d="M109.2,79.3c-.7,0-1.5-.6-1.8-1.3s-.5-1.2-.5-1.2c0,0,.3-1.2,0-2.2s-.7-2.2-1.2-2.9-2.3-1.8-4.7-.7-3.5,2.8-3.3,3.7.5,1.6.8,2,.4,1.5.7,2.1.4.9,1.1,1.2,1.2.7,1.5,1,.5,1,.6,1.4,1.3,1.6,1.3,1.6l5.4-4.8Z"/>
        <g>
          <path class="cls-3" d="M100.7,75.7c.3.1,1.4-.2,2.4,0,1.1.1,1.7.4,2.8.3.3,0,.7-.1,1.1-.2,0-.4,0-.8-.1-1.1-.2-.5-.3-1-.5-1.5-.5-.2-1.1-.2-1.8-.2-3.2.2-5.3,1.1-5.7,1.7-.5.6-.4,1.7-.4,1.7,1.4.2,1.9-.7,2.2-.6Z"/>
          <path class="cls-3" d="M104,80.9c-.9.9-.2,3.9-.2,3.9,0,0,.8.3,1.6,0,.9-.3.9-1.3,1.4-1.9.5-.6,1.3-1.2,1.7-1.9.3-.4.3-1.4.3-2.2-.2,0-.4.2-.5.2-.4-.2-.8-.5-1-1-.5.1-1.1.2-1.5.4-1,.5-1,1.5-1.9,2.4Z"/>
          <path class="cls-3" d="M126.1,94.6c-.1,0-.2.1-.3.3.6,0,1.2-.2,2-1.1-.4.1-1.3.7-1.8.9Z"/>
          <path class="cls-3" d="M125.3,126.3c-.3-.2-.3-.7-.7-1.6s-.2-2.5-.4-3.2c-.1-.6-.7-.9-1.2-1s-.5-.6-.5-.6c0,0,0-.4,0-.9,0-.6-.4-1.4-.4-2.3s-.2-4.2-.2-5.2-.4-2.2-.4-2.2c0,0,.2-.1.4-.3l-1.8-.3-2.5,1.2-1.2,9-.9,3.3.4,1.6c0-.2,0-.4,0-.5,0-.4.2-.4.2.2s.3,1.5.8,2,1,1.1,2.1,1.5c1.1.4,1.6.4,1.6.4,0,0,.8,1.2,1.3,2,.6.8,1.4,2.4,2.6,2.5,1.1.1,1.8-.9,2.2-1.5s0-2.7-.4-3.3c-.4-.6-1-.7-1.3-1Z"/>
          <path class="cls-3" d="M118.3,88.8c0,2.2.4,1.8-.8,3.9-1.2,2.1,1.9,3.5,1.3,5-.6,1.5,1,.3,3.7-1.8.8-.6,1.3-.8,1.8-.9,0,0,0,0-.1-.1-.5-.5-.7-1.6-1.2-2.2s-1.6-1.8-2.1-2.3c-.5-.6-.6-2.3-.9-2.6-.2-.4,0-2.2,0-2.2,0,0,.6.2,1.2.9.6.6,2.4,2,3.5,2.6,1.1.6,3.1,1.2,3.1,1.2,0,0,0,.6,0,1.2,0,.5.4,1.7.5,2,1.7-1.9.8-1.7.7-3.8,0-2.2-2.4-2.4-4.4-3.4-2-1-5.1-2.8-5.1-2.8,0,0-.6.8-1.5,1.1-.9.3.3,2.2.4,4.3Z"/>
          <path class="cls-3" d="M116.3,101c-.8-.2-1.3-1.5-2.8-2.7-1.5-1.2-1.7-1.3-3-3.5-1.3-2.2-2.4-2-5.1-2.7-1.9-.4-3.2-.7-3.8-.8.6,1.3,1.3,2.3,1.3,2.3,0,0,.8.9,1.4,1.2.6.2,1.3.8,2.3,1.1,1,.3,1,.9,1.7,1.5s1.1,2,1.1,2c0,0,.2,1.1.4,1.6.2.5.2,1.1.2,1.8,0,.8.7,1.8.7,2.2s.6,1.6.5,2.3c0,.8.3,1.2.4,1.8,0,.5.5,1.2.8,1.5.7-1.1.4-1.7.3-2.4,0-.9-.3-1.1,1.2-2.8s4.6-3,4.6-3c0,0-1.4-1.2-2.2-1.4Z"/>
        </g>
        <path class="cls-5" d="M108.7,79.5c-.6-.2-1.1-.9-1.4-1.5s-.5-1.2-.5-1.2c0,0,.3-1.2,0-2.2s-.7-2.2-1.2-2.9-2.3-1.8-4.7-.7-3.5,2.8-3.3,3.7.5,1.6.8,2,.4,1.5.7,2.1.4.9,1.1,1.2,1.2.7,1.5,1,.5,1,.6,1.4.6.9,1,1.3"/>
        <path class="cls-2" d="M123.7,94.1c-.8,1.1-1.4,2.5-2.7,3.1-1.2.7-2.2,1.7-3.6,2-1.3.4-2.6.8-3.8,1.4-1.2.7-2.7.7-4,.5,3,.5,5-1.4,7.7-2.1,1.3-.3,2.4-1.2,3.6-1.9,1.2-.5,1.9-1.9,2.7-2.9h0Z"/>
        <path class="cls-2" d="M124.5,95.9c-.8,1.1-1.4,2.5-2.7,3.1-1.2.7-2.2,1.7-3.6,2-1.3.4-2.6.8-3.8,1.4-1.2.7-2.7.7-4,.5,3,.5,5-1.4,7.7-2.1,1.3-.3,2.4-1.2,3.6-1.9,1.2-.5,1.9-1.9,2.7-2.9h0Z"/>
        <path class="cls-2" d="M119.9,85.6c-.3-.5-.6-1.2-1.1-1.4.6.2,1,.8,1.3,1.3,0,0,0,.1,0,.2,0,0-.2,0-.2,0h0Z"/>
        <path class="cls-5" d="M120,85.5s.6.2,1.2.9c.6.6,2.4,2,3.5,2.6,1.1.6,3.1,1.2,3.1,1.2,0,0,0,.6,0,1.2s.5,2.1.5,2.1c0,0,0,.2-.4.3-.4.1-1.3.7-1.8.9s-.5,1.5-.5,1.5c0,0-.9-.7-1.4-1.3-.5-.5-.7-1.6-1.2-2.2-.5-.6-1.6-1.8-2.1-2.3-.5-.6-.6-2.3-.9-2.6-.2-.4,0-2.2,0-2.2Z"/>
        <path class="cls-2" d="M131.1,94.8c-1.1,0-2.4-.3-2.8-1.4.7.9,1.8,1.1,2.8,1.4h0Z"/>
        <circle class="cls-4" cx="101.8" cy="87.9" r="1.7"/>
        <path class="cls-3" d="M98.5,76.9s-.3-2.6,3.8-3.2,4.3,0,4.3,0c0,0,.4-.7-2.5-1.1-2.9-.4-5,1.2-5.8,2.2s-.8,1.1-.7,1.5.9.8.9.8Z"/>
        <path class="cls-5" d="M98.5,76.9s-.3-2.6,3.8-3.2,4.3,0,4.3,0c0,0,.4-.7-2.5-1.1-2.9-.4-5,1.2-5.8,2.2s-.8,1.1-.7,1.5.9.8.9.8Z"/>
        <path class="cls-6" d="M108.8,78.8c-.2.7.1,1.6-.2,2.2-.9,1.4-2,1.8-2.2,2.5s-.7.4-.3,1.9c0,0,1.3,1.9,1.7,2.4"/>
        <path class="cls-6" d="M105.9,84.4s0-.5-1-.5c-.9,0-2.2,0-2.3-.7l-.3.2c-1.1,1-2,2.2-2,2.2,0,0,.1,1.9.6,4,.4,2.1,1.9,4,1.9,4,0,0,.8.9,1.4,1.2s1.3.8,2.3,1.1,1,.9,1.7,1.5,1.1,2,1.1,2c0,0,.2,1.1.4,1.6s.2,1.1.2,1.8.7,1.8.7,2.2.6,1.6.5,2.3.3,1.2.4,1.8.7,1.3.9,1.6.1.4.2,1.6,1.2,3.3,1.2,3.3c0,0-.1,1.2-.1,2.3s-.7,2.3-.8,3.3-.9,2.3-1.3,2.8-.7,1-.7,1c0,0-.5,1.2-.6,1.4s-.7.6-1.2.7-1,1-1.7,1.5,0,1.7.9,1.9,2.7-.1,3.6-.2c.9-.1,3.3-.2,3.3-.2,0,0,.5,0,.5-.6s-.2-1.6-.2-2.2.4-1.8.4-2.3.3-1.1.3-1.6.2-.4.2.2c0,.6.3,1.5.8,2s1,1.1,2.1,1.5,1.6.4,1.6.4c0,0,.8,1.2,1.3,2s1.4,2.4,2.6,2.5,1.8-.9,2.2-1.5c.4-.6,0-2.7-.4-3.3s-1-.7-1.3-1-.3-.7-.7-1.6-.2-2.5-.4-3.2-.7-.9-1.2-1-.5-.6-.5-.6c0,0,0-.4,0-.9s-.4-1.4-.4-2.3-.2-4.2-.2-5.2c0-1-.4-2.2-.4-2.2,0,0,.5-.4,1.2-.6s1.6-.9,2.5-1.7,1.6-2.2,2.3-3.4c.7-1.1.3-2.2.3-2.2,0,0,.7-.3,1.9-.4s.9-1.6,1.7-2.4.5-1.7.6-2.6c0-.9-1.1-1.3-1.1-1.3,0,0,.3-.3.4-.9s-.2-2.2,0-3.3-.1-2.6-.4-2.7-.3-.8-.5-1.3-1.3-.9-2.2-1.6c-.9-.6-1.2-1.2-1.7-1.7s-.8-.9-1.7-1.5-2.6-1.5-3.5-1.9-1.8-1.1-2.8-1.4c-1-.3-2.7-.6-3.5-.6s-2.8.2-4.4.4c-1.6.1-2.6.7-2.6.7"/>
        <path class="cls-2" d="M101.5,75.7c.5.4.4,1.1.3,1.7,0,.3-.2.6,0,.6h.4s.4,0,.4,0l-.4.2h-.4c-.2,0-.4-.2-.3-.4.2-.7.1-1.4,0-2.1h0Z"/>
        <path class="cls-5" d="M125.6,96.1s-1.7,2.5-1.5,3.9-.3,3.3,1.5,2.8c1.8-.5,2.3-1.2,2.3-1.2"/>
        <path class="cls-3" d="M123,92.7h-.5c0,0,1.2,1.3,1.2,1.3-.2-.5-.4-.9-.7-1.3Z"/>
        <path class="cls-2" d="M112.3,110.7c.5-1,.1-2.2.2-3.3,0-1.2,1.1-2,2-2.6,1.8-1.3,3.8-2.4,5.8-3.4-2,1-4,2.1-5.7,3.5-.8.7-1.8,1.4-1.9,2.6,0,1.1.4,2.3-.2,3.4,0,.1-.3,0-.2-.1h0Z"/>
        <path class="cls-2" d="M121.8,109.4c-1.5,1.3-3.4,2.1-5.3,2.8,1.8-.7,3.7-1.6,5.1-3,.1-.1.3,0,.2.2h0Z"/>
        <path class="cls-5" d="M119.1,111.2s1,5.8-.4,8.4c-1.3,2.7-2.5,3.7-2.5,3.7"/>
        <path class="cls-2" d="M102.6,80.7c.3,0,.6.2.8.3.6,0,.7-.7.9-1.1.1-.3.4-.5.7-.6-.2.2-.4.4-.5.7-.1.5-.4,1.4-1.2,1.2-.3,0-.5-.3-.8-.5h0Z"/>
      </g>
    </g>
  </g>
</svg>