<?xml version="1.0" encoding="UTF-8"?>
<svg xmlns="http://www.w3.org/2000/svg" version="1.1" viewBox="0 0 150 150">
  <defs>
    <style>
      .cls-1 {
        fill: #cfe0de;
      }

      .cls-2 {
        fill: #6892a2;
      }

      .cls-3 {
        fill: #b4d1cd;
      }

      .cls-4 {
        fill: #cc2027;
      }

      .cls-5 {
        stroke-linecap: round;
      }

      .cls-5, .cls-6 {
        stroke-width: .3px;
      }

      .cls-5, .cls-6, .cls-7 {
        fill: none;
        stroke: #6892a2;
        stroke-miterlimit: 10;
      }

      .cls-7 {
        stroke-width: .3px;
      }
    </style>
  </defs>
  <!-- Generator: Adobe Illustrator 28.6.0, SVG Export Plug-In . SVG Version: 1.2.0 Build 709)  -->
  <g>
    <g id="Layer_2">
      <circle class="cls-4" cx="108" cy="79.8" r="1.7"/>
      <g>
        <path class="cls-3" d="M109.6,123.6h.6c0,0,1.8.3,2.9.6,1.1.4,1.8.5,1.8,1.3s.5.8.5,1.8c0,.9,2,2.3,2.7,2.3s.6-.9.8-1.8c.2-.8.1-1.4-.3-2.4s-.3-2.8-.3-3.3.5-1.4.6-2.1-.4-2.4-1.7-2.7c-1.3-.3-.9.5-2.1.8-1.2.2-1.2.5-2.1.3s-1.2-1.2-1.2-1.2l.3-.2"/>
        <path class="cls-1" d="M119.1,78.2c1.1.4,2.2.8,3.3,1.7,1.2,1,2.4,1.9,3.7,2.9,1.3,1,2.4,2,2.9,2.9s.9,1.4,1.1,2.2.4,1.9.3,2.5-.2,1.6-.2,1.9,0,1.2.2,2,.7,1.8.4,3c-.3,1.2-.4,2.3-1.4,2.6s-1.4.4-2.4.2c-1-.2-1,.2-1.4,0s-.8-.5-1.3-.4h-.5c0,.1.4,1.1.4,2s.2,3.3-.7,5c-.9,1.7-.4,2.7-1.7,3.6s-2.3,1.4-2.6,1.8-.4.6-.4,1.3,0,4.3-.7,5.6-2.8,4.5-3.7,5.5-1.5,2.2-1.8,3.1-.3,1-.3,1.5c0,.5,0,.9,0,1.5s-.3,1.2-.3,1.2c0,0-1.1,0-1.6,0s-1.6,0-2.3-.2-1.3-.5-1.3-.5c0,0,0-.6.2-1s-.2-1,.2-1.4.4-.5.6-1.2.9-2.2,1.5-3,.5-.6.5-.6c0,0-.5-.3-1.3-.3s-2.3-.5-2.5-.7-.6-.6-.4-2,.3-2.1.3-2.5-.2-2.6-.2-3.5-.3-3.5-.2-5.6.4-3.1.5-3.7.4-1.6.2-2.2,0-1.5,0-2.1-.4-.6,0-1.9c.4-1.2-.2-1.5.3-1.9s.2-1.4.2-1.8.3-1.6.3-2.3.3-1.2.6-1.8.1-1.3.2-2.5,0-1.1,0-2.1-.3-1.4-.6-2,0-1.2,0-1.2c0,0-.3-3.4.5-4.6s2.6-2,3.3-2,.9,0,.9,0c0,0,.5.5,1.2.5s2.2.2,2.8.2,1.2-.1,1.9,0,1.4.5,1.4.5Z"/>
        <g>
          <path class="cls-3" d="M124,104.9c-1.3,1.9-1.4,2.5-3.5,4-2.4,1.8-3.5,1.8-3.9,4.6-.4,2.9-.8,6.2-1.3,7.7-.3.8-.6,1.9-.8,2.9,1-1.2,2.8-4.1,3.5-5.2.7-1.2.7-4.9.7-5.6s.1-1,.4-1.3c.3-.3,1.3-.8,2.6-1.8,1.3-1,.8-1.9,1.7-3.6.3-.6.5-1.2.6-1.9Z"/>
          <path class="cls-3" d="M127.6,93.6c-.2-1.2-1.4-5.4-1.4-5.4,0,0-1.7-1.8-3.6-3-1.9-1.1-1.9.4-4.4.4s0,2.8-3,3,.6,3.2-.7,3.7c-1.3.5-.3,3.9,1.3,4.1,1.6.2,3-1.1,5.7-1.8,2.7-.7,6.3.4,6.3.4,0,0,0-.3-.2-1.5Z"/>
          <path class="cls-3" d="M111.2,109.5c.5-2.4,2.2-3.5,2.2-3.5,0,0-2,.2-5.2,5,0,1.1-.7,12.2,0,12.2s1.3.3,1.3.3c0,0,.6-3,1.3-6.2.2-1.1,0-6,.4-7.8Z"/>
        </g>
        <g>
          <g>
            <path class="cls-1" d="M114.8,78.3s.8-.9.9-1,.6-.8,1-1.3,0-.7,0-1.1-.5-.8-.4-1.2,0-1.6.2-2,.8-1.6,1.1-2.1,1.6-.8,2.4-1.2,2.2.2,2.8.2,1,1.1,1.7,1.5.6,1.3.9,1.6.1,1.2.1,1.8-.8,1.3-.9,1.9-.7.9-.7.9c0,0-1.3.6-1.9,1.9-.5,1.3-.1,2,.3,2.6l-7.6-2.7Z"/>
            <path class="cls-3" d="M120.8,72.6c.5.2.4,1.3.5,1.9,0,.6.4.8-.2,1.3-.6.6-.4,2.1-.7,2.4-.4.3-.9.5-.4.7.6.1.9.6.7,1,0,0,0,.2,0,.4l1.7.6c-.4-.6-.8-1.3-.3-2.6.5-1.3,1.9-1.9,1.9-1.9,0,0,.6-.3.7-.9,0-.6.9-1.3.9-1.9s.2-1.5-.1-1.8c-.2-.2-.2-.9-.6-1.4l-7.2.6c1.9.9,2.6,1.5,3.2,1.6Z"/>
            <path class="cls-6" d="M122.3,80.7c-.4-.6-.7-1-.2-2.4.5-1.3,1.9-1.9,1.9-1.9,0,0,.6-.3.7-.9s.9-1.3.9-1.9.2-1.5-.1-1.8-.2-1.2-.9-1.6-1.1-1.5-1.7-1.5-2-.6-2.8-.2-2.1.8-2.4,1.2-.9,1.7-1.1,2.1-.1,1.5-.2,2,.4.8.4,1.2.3.6,0,1.1-.8,1.2-1,1.3-.5.3-.5.3"/>
            <path class="cls-6" d="M121.9,79.5c.3.2.3.2.6.4,1.2,1,2.4,1.9,3.7,2.9,1.3,1,2.4,2,2.9,2.9s.9,1.4,1.1,2.2.4,1.9.3,2.5-.2,1.6-.2,1.9,0,1.2.2,2,.7,1.8.4,3c-.3,1.2-.4,2.3-1.4,2.6s-1.4.4-2.4.2c-1-.2-1,.2-1.4,0s-.8-.5-1.3-.4h-.5c0,.1.4,1.1.4,2s.2,3.3-.7,5c-.9,1.7-.4,2.7-1.7,3.6s-2.3,1.4-2.6,1.8-.4.6-.4,1.3,0,4.3-.7,5.6-2.8,4.5-3.7,5.5"/>
            <path class="cls-6" d="M114.2,124.5c-.9,1-1.5,2.2-1.8,3.1s-.3,1-.3,1.5c0,.5,0,.9,0,1.5s-.3,1.2-.3,1.2c0,0-1.1,0-1.6,0s-1.6,0-2.3-.2-1.3-.5-1.3-.5c0,0,0-.6.2-1s-.2-1,.2-1.4.4-.5.6-1.2.9-2.2,1.5-3,.5-.6.5-.6c0,0-.5-.3-1.3-.3s-2.3-.5-2.5-.7-.6-.6-.4-2,.3-2.1.3-2.5-.2-2.6-.2-3.5-.3-3.5-.2-5.6.4-3.1.5-3.7.4-1.6.2-2.2,0-1.5,0-2.1-.4-.6,0-1.9c.4-1.2-.2-1.5.3-1.9s.2-1.4.2-1.8.3-1.6.3-2.3.3-1.2.6-1.8.1-1.3.2-2.5,0-1.1,0-2.1-.3-1.4-.6-2,0-1.2,0-1.2c0,0-.3-3.4.5-4.6s2.6-2,3.3-2,.9,0,.9,0c0,0,.5.5,1.2.5s1.7.2,2.4.2"/>
            <path class="cls-2" d="M123.4,99.2c-1.2.7-2.4,1.5-3.9,1.4-1.4,0-2.8-.4-4.1-.2-2,.2-4.2.6-6.2,0,0,0-2-.6-2-.6l2,.4c2,.7,4.1.2,6.2,0,1.4,0,2.8.3,4.2.3,1.4.1,2.7-.6,3.9-1.2h0Z"/>
            <path class="cls-2" d="M120.5,98.7c-1.7.2-3.4-.3-5.1-.1l-1.7.2c-2.3.4-4.5-.4-6.8-.5,2.3,0,4.5.7,6.8.3,0,0,1.7-.2,1.7-.2,1.7-.2,3.4.4,5.1.4h0Z"/>
            <path class="cls-6" d="M114.1,124.6s.2,0,.5.3.3.7.3.7c0,.8.5.8.5,1.8,0,.9,2,2.3,2.7,2.3s.6-.9.8-1.8c.2-.8.1-1.4-.3-2.4s-.3-2.8-.3-3.3.5-1.4.6-2.1-.1-1.4-.7-2"/>
            <path class="cls-5" d="M114.8,105.1s-1.2.6-2.7,2.6c-1.5,2-1,3-1,4.4s-.2,5.6-.6,7.5-.9,4-.9,4"/>
          </g>
          <circle class="cls-4" cx="108" cy="79.8" r="1.7"/>
        </g>
        <path class="cls-3" d="M117.4,87s-1,2.7-.8,4,.2,2.4.1,3.2.5,1.5,1.4,2.3c1,.8,1.2.8,1.7,1.6s1.4,1.7,2.1,1.5,1.5-.2,1.1-.6-.8-1.3-.1-2.6c.7-1.3.9-1.7,1.3-1.8s1,.2.6-.3-1.6-1.8-1.7-2.5-.1-2.2-.5-3.3-1-2.4-2.3-2.3-2.1.2-2.5.5l-.4.3Z"/>
        <path class="cls-7" d="M117.4,87s-1,2.7-.8,4,.2,2.4.1,3.2.5,1.5,1.4,2.3c1,.8,1.2.8,1.7,1.6s1.4,1.7,2.1,1.5,1.5-.2,1.1-.6-.8-1.3-.1-2.6c.7-1.3.9-1.7,1.3-1.8s1,.2.6-.3-1.6-1.8-1.7-2.5-.1-2.2-.5-3.3-1-2.4-2.3-2.3-2.1.2-2.5.5l-.4.3Z"/>
        <path class="cls-2" d="M124.3,94.5c1.7,0,3.5.2,4.9,1.2-1.4-.9-3.2-1.1-4.8-1,0,0,0-.3,0-.3h0Z"/>
        <path class="cls-3" d="M124.6,75.5s.6-2.7-3.6-3.8-4.4-.6-4.4-.6c0,0-.3-.8,2.7-.9s5,1.8,5.7,2.9.7,1.3.5,1.6-1,.7-1,.7Z"/>
        <path class="cls-7" d="M124.6,75.5s.6-2.7-3.6-3.8-4.4-.6-4.4-.6c0,0-.3-.8,2.7-.9s5,1.8,5.7,2.9.7,1.3.5,1.6-1,.7-1,.7Z"/>
        <path class="cls-7" d="M115.2,77.6c.1.3.4.8.6,1,.9,1.4,2.1,1.8,2.3,2.4.2.7.7.4.4,1.9,0,0-.9,1.7-1.5,2.1"/>
        <path class="cls-7" d="M118.6,81.9s0-.5,1-.5,3.1-.4,3.2-1.2"/>
        <path class="cls-2" d="M121.5,73.3c0,.7-.2,1.4,0,2.1,0,.2-.1.5-.3.4,0,0-.4,0-.4,0l-.4-.2h.4c0,0,.4,0,.4,0,.2,0,0-.3,0-.6,0-.6-.2-1.3.3-1.7h0Z"/>
        <path class="cls-2" d="M118.4,77.6c.5,0,.7.6,1,.9.3.3.8.2,1.2.4-.9.5-1.8-.5-2.2-1.3h0Z"/>
      </g>
    </g>
  </g>
</svg>