<?xml version="1.0" encoding="UTF-8"?>
<svg xmlns="http://www.w3.org/2000/svg" version="1.1" viewBox="0 0 150 150">
  <defs>
    <style>
      .cls-1 {
        fill: #cfe0de;
      }

      .cls-2 {
        fill: #6892a2;
      }

      .cls-3 {
        fill: #b4d1cd;
      }

      .cls-4 {
        fill: #cc2027;
      }

      .cls-5 {
        fill: none;
        stroke: #6892a2;
        stroke-miterlimit: 10;
        stroke-width: .3px;
      }
    </style>
  </defs>
  <!-- Generator: Adobe Illustrator 28.6.0, SVG Export Plug-In . SVG Version: 1.2.0 Build 709)  -->
  <g>
    <g id="Layer_2">
      <g>
        <path class="cls-1" d="M124,78.2c-.2-1.2,1.1-1.9,1.7-2.3s.7-1,1.2-1.1.1-.5.8-.6.5-.6.8-.7.7-.6,1-.9,1.2-2.3,1.2-3.5c0-1.2-1-1.9-1.4-2.4s-1.8-1.4-3.4-1.6c-1.6-.2-2.4.6-3.4,1.4s-.4,1.5-.9,2,0,.8-.5,1.4,0,0-.2.6.1,1-.7,1.3-1.9.2-1.9.2l5.6,6.1Z"/>
        <path class="cls-1" d="M127.3,84.3c-.2-.9-.4-2.3-.9-3.2-.6-.9-.9-2.4-1.5-3.2-.6-.8-1.3-1.8-2-2.5s-1.6-2.5-2.3-2.6c-.7-.2-1.6-.6-2.3-.8-.7-.2-.9-.5-1.9-1.5-1-1-2.8-1.1-4.7-.6-1.9.5-4.5,3.1-4.4,4,0,.9,0,1.4-.1,1.8s-.7,1.7-1,2.4c-.2.7-.2,1.8-.6,2.3-.4.5-1.4,2.3-1.7,3.5-.4,1.2-.6,1.9-.9,2.2-.2.4-.7,1.4-.7,1.4,0,0-.7,1-.9,2.2-.3,1.1-.8,2-.9,2.9,0,.9-.1,1.5-.3,2.3-.1.8-1.5,5.8-1.5,6.9s0,2.9.2,4.6c.2,1.7.2,3.4.1,4.6,0,1.2.3.9-.2,1.5-.6.6-.9,1.7-.5,2.1.3.4.3,1.2.8,1.3.5,0,.8,1,1.3,1.4.4.4,1.9,2.9,2.4,3.2.4.3.8.7,1.1.9.4.2.6.6.7.9s.7,1.2,1.3,1.7c.5.4,1.3.7,1.7,1.3,0,.2,0,.3,0,.4,0,.4-.4,1.8-.4,2.1,0,.3.1.5.1.5,0,0-.2,0-.3.2s0,.5,0,.7,0,.2-.2.3c-.3.1-.4.2-.7.4s-.5,1.4-.5,1.4c0,0,1,0,1.5,0s1.6.3,2,.2,1.1,0,1.6,0c.5,0,1.4,0,1.7,0,.4,0,.5.1.3-.5-.2-.6-.2-1.1-.2-1.6,0-.4.3-2.9.6-3.7.3-.9.1-2.4.5-3.7.4-1.2,1-2.7,1-3.7s.4-3.8.4-4.9c0-1.2,0-1.2-.2-2-.1-.7,0-1.8,0-2.2,0-.4.1-1.3.3-1.8s.2-2,.8-3.2c.5-1.2,1.1-1.6,1.1-2.4s1.2-1.7,1.2-2.6c0-.9.1-2.1.2-2.8,0-.7.5-1.6.5-1.6l.7-2.5c0,.3-.3,1.2-.1,1.6.2.4.8,1.4.9,1.8,0,.4.5,1,.8,1.7.3.6.6,1.9,2,1.6s3.3-2.2,3.6-3.1c.3-.9,1.2-4.1,1.2-5.8,0-1.7-.5-5-.7-5.9ZM107.1,116.8s.2-1-.4-1.8c-.6-.8-1.5-2-1.5-2,0,0,.4-.4.8-.8.4-.3.8-.7.8-1.2s0-.4.2-1c.1-.6-.1-1.1.2-1.6.4-.5,0-.9.5-1.4.5-.6.3-.4.5-1.2,0-.3.2-.6.2-.9h0c0,0,0,1,.2,1.4s.2.9.1,1.4-.4,1.4-.2,1.9c.2.5.3.7.3,1.1s0,1.5,0,1.9-.1.9-.2,1.3c0,.4-.3,1.5-.4,2.1,0,0,0,0,0,.1-.3.4-1,.8-1,.8Z"/>
        <g>
          <path class="cls-3" d="M124.6,84.4c.3-1.3-.7-5.5-2.2-5.7-1.5-.3-4.3-.7-6.2-.7-1.9,0-3.5,3.2-5,5.9-1.5,2.7.1,3.7-1.7,5.1-1.8,1.4-2.4,3-2.4,3l4.5,2.4c3.2.5,6.2.4,7.5.4l.2-.6c-1.3-1.6-4.8-6.1-1.4-6.1,4.1,0,6.6,3.9,6.5,4.4,0,.5.6,1,.6,1l.4-4.4s-.9-3.3-.6-4.6Z"/>
          <path class="cls-3" d="M113.6,122c.4-1.2,1-2.7,1-3.7s.4-3.8.4-4.9c0-1.2,0-1.2-.2-2-.1-.7,0-1.8,0-2.2,0-.4.1-1.3.3-1.8.2-.4.2-2,.8-3.2.5-1.2,1.1-1.6,1.1-2.4s1.2-1.7,1.2-2.6c0-.1,0-.3,0-.4-1.3.9-3.5,2.5-3.5,4.4,0,2.6-1.4,7.6-2.4,12.9-1,5.3.4,10.6.4,10.6h0c0-.4.2-.8.2-1.1.3-.9.1-2.4.5-3.7Z"/>
          <path class="cls-3" d="M108.4,104.9s0,.9.2,1.3c.2.4.2.9.1,1.4s-.4,1.4-.2,1.9c.2.5.3.7.3,1.1s0,.6,0,.9c.2-2,.2-4.3-.4-6.7h0Z"/>
          <path class="cls-3" d="M106.4,98.2s-3,1.4-3.5,5.4c-.5,4-1.4,7-2,8.3-.6,1.3-.6,3.3-.3,4.9,0,.4.2.9.3,1.5.6.9,1.3,1.9,1.6,2.1.4.3.8.7,1.1.9.4.2.6.6.7.9.2.4.7,1.2,1.3,1.8.5.4,1.3.7,1.7,1.3,0,.2,0,.3,0,.4,0,0,0,0,0,.2h.3s.1-7.2.5-10.4c0,.1,0,.3,0,.4,0,0,0,0,0,.1-.3.4-1,.8-1,.8,0,0,.2-1-.4-1.8-.6-.8-1.5-2-1.5-2,0,0,.4-.4.8-.8s.8-.7.8-1.2,0-.4.2-1-.1-1.1.2-1.6c.4-.5,0-.9.5-1.4.5-.6.3-.4.5-1.2,0-.3.2-.6.2-.9-1-3.6-1.1-5.9-1.1-5.9l-1-.8Z"/>
        </g>
        <path class="cls-3" d="M127.8,70.9c-.2-1-4.5-2.3-4.5-2.3,0,0,1.3,1.3,1.9,1.5.6.1.7.4.4,1.6-.3,1.2.9,1.1-.2,1.1-1.1,0-1.2.5-1.9.6-.7.1-.6,1.6-.7,2.7,0,.3,0,.5-.2.7l1.3,1.4c-.2-1.2,1.1-1.9,1.7-2.3s.7-1,1.2-1.1c.5,0,.1-.5.8-.6.3,0,.4-.2.5-.3.7-2.2-.2-2.2-.4-3.1Z"/>
        <g>
          <path class="cls-5" d="M124,77.5c.3-.8,1.2-1.3,1.7-1.6s.7-1,1.2-1.1.1-.5.8-.6.5-.6.8-.7.7-.6,1-.9,1.2-2.3,1.2-3.5c0-1.2-1-1.9-1.4-2.4s-1.8-1.4-3.4-1.6c-1.6-.2-2.4.6-3.4,1.4s-.4,1.5-.9,2,0,.8-.5,1.4,0,0-.2.6.1,1-.7,1.3-1.9.2-1.9.2"/>
          <path class="cls-5" d="M108.2,116c-.3.4-1,.8-1,.8,0,0,.2-1-.4-1.8s-1.5-2-1.5-2c0,0,.4-.4.8-.8s.8-.7.8-1.2,0-.4.2-1-.1-1.1.2-1.6,0-.9.5-1.4.3-.4.5-1.2"/>
          <path class="cls-2" d="M107.5,102.5c-.3-1.9-.2-3.8-.1-5.7,0,1.9,0,3.8.4,5.7,0,0-.2,0-.2,0h0Z"/>
          <path class="cls-5" d="M119.3,94.1c-.3.3-.3.7-.3.7,0,0-.5.9-.5,1.6,0,.7-.2,1.9-.2,2.8s-1.2,1.7-1.2,2.6-.6,1.3-1.1,2.4-.6,2.7-.8,3.2-.3,1.4-.3,1.8-.1,1.4,0,2.2c.1.7.1.8.2,2,0,1.2-.4,4-.4,4.9s-.6,2.4-1,3.7-.2,2.8-.5,3.7c-.3.9-.5,3.3-.6,3.7s0,1,.2,1.6,0,.5-.3.5-1.2,0-1.7,0-1.1,0-1.6,0-1.5-.2-2-.2-1.5,0-1.5,0c0,0,.2-1.2.5-1.4s.4-.3.7-.4.2-.1.2-.3,0-.5,0-.7.3-.2.3-.2c0,0-.1-.2-.1-.5s.3-1.7.4-2.1,0-.2,0-.4c0,0,.3-6.3.4-7.5s.6-3.7.8-5.1.1-2.3,0-2.8-.3-1.2-.1-2c.2-.7-.6-3.6-1-5.5"/>
          <path class="cls-5" d="M124.1,76.8c.3.3.5.7.8,1,.6.8.9,2.3,1.5,3.2s.7,2.3.9,3.2.7,4.2.7,5.9c0,1.7-.9,4.9-1.2,5.8-.3.9-2.1,2.7-3.6,3.1s-1.7-.9-2-1.6-.6-1.7-2.6-4.4"/>
          <path class="cls-5" d="M118.9,72.2c-.2,0-.4-.2-.6-.2-.7-.2-.9-.5-1.9-1.5-1-1-2.8-1.1-4.7-.6-1.9.5-4.5,3.1-4.4,4s0,1.4-.1,1.8-.7,1.7-1,2.4-.2,1.8-.6,2.3c-.4.5-1.4,2.3-1.7,3.5s-.6,1.9-.9,2.2-.7,1.4-.7,1.4c0,0-.7,1-.9,2.2-.3,1.1-.8,2-.9,2.9s-.1,1.5-.3,2.3-1.5,5.8-1.5,6.9,0,2.9.2,4.6.2,3.4.1,4.6.3.9-.2,1.5c-.6.6-.9,1.7-.5,2.1s.3,1.2.8,1.3.8,1,1.3,1.4,1.9,2.9,2.4,3.2.8.7,1.1.9.6.6.7.9.7,1.2,1.3,1.7c0,0,.6.4.9.6s.8.7.8.7"/>
          <path class="cls-2" d="M101.9,88.2c1.2,2.1,3.7,3.3,5.7,4.6,2.6,1.9,5.9,3.3,9.1,2.7,0,0,2.3-.8,2.3-.8l-2.3.9c-3.3.7-6.7-.7-9.3-2.6-1.9-1.4-4.4-2.6-5.6-4.8h0Z"/>
          <path class="cls-2" d="M102.2,86.7c1.2,2.1,3.7,3.3,5.7,4.6,2.6,1.9,5.9,3.3,9.1,2.7,0,0,2.3-.8,2.3-.8l-2.3.9c-3.3.7-6.7-.7-9.3-2.6-1.9-1.4-4.4-2.6-5.6-4.8h0Z"/>
        </g>
        <circle class="cls-4" cx="111.1" cy="70.9" r="1.7"/>
        <path class="cls-5" d="M128.4,73.4s.9-2.4-2.8-3.9c-3.7-1.5-4-1.1-4-1.1,0,0-.2-.8,2.6-.5,2.8.3,4.4,2.3,4.9,3.4.5,1.1.5,1.2.3,1.6s-1,.5-1,.5Z"/>
        <path class="cls-3" d="M121.3,80s-2.4,1.6-3,2.8c-.6,1.2-1.2,2-1.7,2.6-.5.6-.5,1.5-.2,2.7s.5,1.4.4,2.3.2,2.2.9,2.4,1.3.7,1.2.2.1-1.5,1.4-2.1c1.3-.6,1.7-.9,2.1-.7s.8.7.7,0-.3-2.4,0-3,1.2-1.9,1.5-2.9.6-2.6-.5-3.2-1.8-1.1-2.3-1.1h-.5Z"/>
        <path class="cls-5" d="M121.3,80s-2.4,1.6-3,2.8c-.6,1.2-1.2,2-1.7,2.6-.5.6-.5,1.5-.2,2.7s.5,1.4.4,2.3.2,2.2.9,2.4,1.3.7,1.2.2.1-1.5,1.4-2.1c1.3-.6,1.7-.9,2.1-.7s.8.7.7,0-.3-2.4,0-3,1.2-1.9,1.5-2.9.6-2.6-.5-3.2-1.8-1.1-2.3-1.1h-.5Z"/>
        <path class="cls-2" d="M122.7,90c1,1.4,2.4,2.8,2.5,4.6-.2-1.8-1.7-3.1-2.7-4.4,0,0,.2-.2.2-.2h0Z"/>
        <path class="cls-2" d="M120.5,72.6c.2.4.3.9.5,1.3.3,1.1,1.3,1.9,2.4,2.1.2,0,.4,0,.7,0-.2.1-.4.2-.7.2-1.7-.3-2.9-2-2.8-3.7h0Z"/>
        <path class="cls-2" d="M125.9,70.5c-.1.7-.2,1.4,0,2.1,0,.2-.1.4-.4.4,0,0-.4,0-.4,0l-.4-.2h.4c0,0,.4,0,.4,0,.2,0,0-.3,0-.6,0-.6-.1-1.3.4-1.7h0Z"/>
        <path class="cls-5" d="M118.6,72.1c0,.3,0,.6,0,.9.2,1.6,1.1,2.5,1,3.2s.5.7-.5,1.9c0,0-.9,1.5-1.3,2.1"/>
        <path class="cls-5" d="M124.5,77.3c-.4.6-2.8.2-3.7-.1s-1.1,0-1.1,0"/>
      </g>
    </g>
  </g>
</svg>