<?xml version="1.0" encoding="UTF-8"?>
<svg xmlns="http://www.w3.org/2000/svg" version="1.1" viewBox="0 0 150 150">
  <defs>
    <style>
      .cls-1 {
        fill: #cfe0de;
      }

      .cls-2 {
        fill: #6892a2;
      }

      .cls-3 {
        fill: #b4d1cd;
      }

      .cls-4 {
        fill: #cc2027;
      }

      .cls-5 {
        stroke-linecap: round;
      }

      .cls-5, .cls-6 {
        fill: none;
        stroke: #6892a2;
        stroke-miterlimit: 10;
        stroke-width: .3px;
      }
    </style>
  </defs>
  <!-- Generator: Adobe Illustrator 28.6.0, SVG Export Plug-In . SVG Version: 1.2.0 Build 709)  -->
  <g>
    <g id="Layer_2">
      <g>
        <path class="cls-1" d="M92.4,78.3s-.8-.9-.9-1-.6-.8-1-1.3,0-.7,0-1.1.5-.8.4-1.2,0-1.6-.2-2-.8-1.6-1.1-2.1-1.6-.8-2.4-1.2-2.2.2-2.8.2-1,1.1-1.7,1.5-.6,1.3-.9,1.6-.1,1.2-.1,1.8.8,1.3.9,1.9.7.9.7.9c0,0,1.3.6,1.9,1.9s.1,2-.3,2.6l7.6-2.7Z"/>
        <path class="cls-3" d="M89.6,79.3h0v-1.6s-.8-1.5-.8-2.1.4-1.9.4-2.7c0-.8-.4-1.4-.6-2.1-.2-.6-1.2-1-1.7-1.4-.2-.2-.3-.6-.4-1-.8,0-1.8.3-2.3.3-.6,0-1,1.1-1.7,1.5s-.6,1.3-.9,1.6c-.3.3-.1,1.2-.1,1.8s.8,1.3.9,1.9c0,.6.7.9.7.9,0,0,1.3.6,1.9,1.9.3.6.3,1.1.2,1.5l4.2-.6Z"/>
        <path class="cls-6" d="M84.8,81c.4-.6.8-1.3.3-2.6-.5-1.3-1.9-1.9-1.9-1.9,0,0-.6-.3-.7-.9s-.9-1.3-.9-1.9-.2-1.5.1-1.8.2-1.2.9-1.6,1.1-1.5,1.7-1.5,2-.6,2.8-.2,2.1.8,2.4,1.2.9,1.7,1.1,2.1.1,1.5.2,2-.4.8-.4,1.2-.3.6,0,1.1.8,1.2,1,1.3.9,1,.9,1"/>
        <path class="cls-1" d="M88.2,78.3c-1.1.4-2.2.8-3.3,1.7-1.2,1-2.4,1.9-3.7,2.9s-2.4,2-2.9,2.9c-.5.8-.9,1.4-1.1,2.2s-.4,1.9-.3,2.5.2,1.6.2,1.9,0,1.2-.2,2-.7,1.8-.4,3,.4,2.3,1.4,2.6,1.4.4,2.4.2c1-.2,1,.2,1.4,0s.8-.5,1.3-.4h.5c0,.1-.4,1.1-.4,2,0,.9-.2,3.3.7,5,.9,1.7.4,2.7,1.7,3.6s2.3,1.4,2.6,1.8.4.6.4,1.3,0,4.3.7,5.6c.7,1.2,2.8,4.5,3.7,5.5.9,1,1.5,2.2,1.8,3.1s.3,1,.3,1.5,0,.9,0,1.5.3,1.2.3,1.2c0,0,1.1,0,1.6,0s1.6,0,2.3-.2,1.3-.5,1.3-.5c0,0,0-.6-.2-1s.2-1-.2-1.4-.4-.5-.6-1.2-.9-2.2-1.5-3-.5-.6-.5-.6c0,0,.5-.3,1.3-.3s2.3-.5,2.5-.7.6-.6.4-2c-.2-1.4-.3-2.1-.3-2.5s.2-2.6.2-3.5.3-3.5.2-5.6-.4-3.1-.5-3.7-.4-1.6-.2-2.2,0-1.5,0-2.1.4-.6,0-1.9.2-1.5-.3-1.9-.2-1.4-.2-1.8-.3-1.6-.3-2.3-.3-1.2-.6-1.8-.1-1.3-.2-2.5,0-1.1,0-2.1.3-1.4.6-2,0-1.2,0-1.2c0,0,.3-3.4-.5-4.6s-2.6-2-3.3-2-.9,0-.9,0c0,0-.5.5-1.2.5s-2.2.2-2.8.2-1.2-.1-1.9,0-1.4.5-1.4.5Z"/>
        <path class="cls-3" d="M95.2,129.1c0,.5,0,.9,0,1.5,0,.5.3,1.2.3,1.2,0,0,1.1,0,1.6,0,.5,0,1.6,0,2.3-.2.7-.2,1.3-.5,1.3-.5,0,0,0-.6-.2-1,0-.2,0-.4,0-.7h0s-.5-.2-1.3-.4c-.7-.2-.2-1.4-1-1.4s.9-.7-.9-.7.6-.9.3-1.3c-.3-.4.5-1.2-.8-1-1.3.3-2-6.3-2.6-6s0-1.3-.6-1.2c-.5.2-.1-1.2-.7-.8-.6.5.1-1-.2-1.6-.4-.6.5-1.2,1.1-.9.6.4.7,2.7,1.4,3.1.6.4,1.5-.2,1.5-.2.4,0,.6-.3.4-.6-.2-.3,1,0,1.7,0s1.2,0,1.4-.3c.1-.2-.1-1.2-.7-1.4-.5-.2,0-1.3-.8-1.3-.8,0,.5-1.3,0-1.3s-.3-1.1-1-1.1,1.3-1.2,0-1.2,2.7-1.1,1.6-1.1-1.1-.7.4-1.1c1.4-.4.1-.7-1-.5-1.1.2-1-.2-.1-.6s.3-1.6-.2-1.2c-.6.4,1.3-2.7,0-1.6-1.3,1,.6-2.5-.6-1.8-1.1.7,0-.6-1-.6s-.8-.6-1.9-.8-.2-2-1.9-2,.6-1.5-1.5-1.3c-2.1.2-1.1-1.9-1.9-2.2-.8-.3,1-1.4-.5-1.4s3.8-1.2,1.4-1.2,0-1.5-1.4-1.3c-1.5.2.5-1.2,0-1.9-.5-.7,1.4-3.1,0-2.7-1.4.4-.8-2.3-2-2.2s-.5-1.5-1.8-1.9c-.7-.2-.9-1.1-1-1.9-1,.8-2,1.6-3.1,2.4-1.3,1-2.4,2-2.9,2.9-.5.8-.9,1.4-1.1,2.2-.2.8-.4,1.9-.3,2.5.1.6.2,1.6.2,1.9s0,1.2-.2,2c-.3.8-.7,1.8-.4,3s.4,2.3,1.4,2.6,1.4.4,2.4.2c1-.2,1,.2,1.4,0,.4-.2.8-.5,1.3-.4h.5c0,.1-.4,1.1-.4,2,0,.9-.2,3.3.7,5s.4,2.7,1.7,3.6,2.3,1.4,2.6,1.8c.3.3.4.6.4,1.3s0,4.3.7,5.6c.7,1.2,2.8,4.5,3.7,5.5.9,1,1.5,2.2,1.8,3.1.3.9.3,1,.3,1.5Z"/>
        <path class="cls-6" d="M88.2,78.3c-1.1.4-2.2.8-3.3,1.7-1.2,1-2.4,1.9-3.7,2.9s-2.4,2-2.9,2.9c-.5.8-.9,1.4-1.1,2.2s-.4,1.9-.3,2.5.2,1.6.2,1.9,0,1.2-.2,2-.7,1.8-.4,3,.4,2.3,1.4,2.6,1.4.4,2.4.2c1-.2,1,.2,1.4,0s.8-.5,1.3-.4h.5c0,.1-.4,1.1-.4,2,0,.9-.2,3.3.7,5,.9,1.7.4,2.7,1.7,3.6s2.3,1.4,2.6,1.8.4.6.4,1.3,0,4.3.7,5.6c.7,1.2,2.8,4.5,3.7,5.5.9,1,1.5,2.2,1.8,3.1s.3,1,.3,1.5,0,.9,0,1.5.3,1.2.3,1.2c0,0,1.1,0,1.6,0s1.6,0,2.3-.2,1.3-.5,1.3-.5c0,0,0-.6-.2-1s.2-1-.2-1.4-.4-.5-.6-1.2-.9-2.2-1.5-3-.5-.6-.5-.6c0,0,.5-.3,1.3-.3s2.3-.5,2.5-.7.6-.6.4-2c-.2-1.4-.3-2.1-.3-2.5s.2-2.6.2-3.5.3-3.5.2-5.6-.4-3.1-.5-3.7-.4-1.6-.2-2.2,0-1.5,0-2.1.4-.6,0-1.9.2-1.5-.3-1.9-.2-1.4-.2-1.8-.3-1.6-.3-2.3-.3-1.2-.6-1.8-.1-1.3-.2-2.5,0-1.1,0-2.1.3-1.4.6-2,0-1.2,0-1.2c0,0,.3-3.4-.5-4.6s-2.6-2-3.3-2-.9,0-.9,0c0,0-.5.5-1.2.5s-2.2.2-2.8.2-1.2-.1-1.9,0-1.4.5-1.4.5Z"/>
        <path class="cls-2" d="M84.4,96.5c1.2-.7,2.4-1.5,3.9-1.4,1.4,0,2.8.4,4.1.2,2-.2,4.2-.6,6.2,0,0,0,2,.6,2,.6l-2-.4c-2-.7-4.1-.2-6.2,0-1.4,0-2.8-.2-4.2-.3-1.4-.1-2.7.6-3.9,1.2h0Z"/>
        <path class="cls-2" d="M84.1,98.2c1.2-.7,2.5-1.5,4-1.4,1.4,0,2.9.4,4.2.2,2.9-.6,5.6,0,8.5.3-1.4,0-2.9-.2-4.3-.4-1.4,0-2.8.2-4.2.4-1.5.1-2.9-.2-4.3-.3-1.5-.2-2.7.6-4,1.2h0Z"/>
        <path class="cls-2" d="M82.8,88.9c0,.6-.3,1.1-.3,1.7,0,.6.3,1.1.3,1.6.3,1.2-.2,2.3-.8,3.3-1.3.7-2.7.8-4.1.6-.5,0-.9-.1-1.3-.3.4.2.9.2,1.3.2,1.3,0,2.8,0,3.9-.7.4-.9,1.1-1.8.8-3.1,0-.6-.4-1.1-.3-1.7,0-.6.4-1.1.5-1.6h0Z"/>
        <path class="cls-2" d="M82.6,94c.6.1,1,.6,1.2,1.2.3,1,1.1,2.3.2,3.2-.3.4-.5,1-.6,1.5,0-.6.1-1.1.5-1.6.8-1-.1-2.1-.3-3.1-.1-.5-.5-1-1-1.2h0Z"/>
        <path class="cls-1" d="M97.6,123.7h-.6c0,0-1.8.3-2.9.6s-1.8.5-1.8,1.3-.5.8-.5,1.8c0,.9-2,2.3-2.7,2.3s-.6-.9-.8-1.8c-.2-.8-.1-1.4.3-2.4s.3-2.8.3-3.3-.5-1.4-.6-2.1.4-2.4,1.7-2.7.9.5,2.1.8,1.2.5,2.1.3,1.2-1.2,1.2-1.2l-.3-.2"/>
        <path class="cls-3" d="M90,117.4c-1.3.3-1.8,2-1.7,2.7,0,.7.6,1.6.6,2.1s0,2.3-.3,3.3c-.4,1-.5,1.6-.3,2.4.2.8,0,1.7.8,1.8.3,0,.8-.2,1.3-.6,0-.8-.2-1.7,0-2.3.4-1.1.4-2.4.4-4.1,0-1.7.3-1.6.3-3.5,0-.7,0-1.2,0-1.6-.2-.2-.4-.3-1.1-.2Z"/>
        <path class="cls-6" d="M95.4,117.3s-.3,1-1.2,1.2-.8,0-2.1-.3-.8-1-2.1-.8-1.8,2-1.7,2.7.6,1.6.6,2.1,0,2.3-.3,3.3-.5,1.6-.3,2.4c.2.8,0,1.7.8,1.8s2.7-1.4,2.7-2.3c0-.9.5-1,.5-1.8s.7-1,1.8-1.3,2.9-.6,2.9-.6h.6"/>
        <path class="cls-5" d="M95.4,117.3l-.3-.2c-.3-.2-.9-1.6-1.1-2.4s-1.1-1.4-1.6-2.9-.6-4.1-.7-5.1"/>
        <path class="cls-2" d="M90.8,106.2c.8.2,1.5.4,2.4.5-.8.3-1.7,0-2.4-.5h0Z"/>
      </g>
      <circle class="cls-4" cx="99.3" cy="79.9" r="1.7"/>
      <circle class="cls-4" cx="99.3" cy="79.9" r="1.7"/>
    </g>
  </g>
</svg>